HIERARCHY
ROOT Hips
{
	OFFSET	0.00	0.00	0.00
	CHANNELS 6 Xposition Yposition Zposition Zrotation Xrotation Yrotation
	JOINT LeftHip
	{
		OFFSET	 3.430000	 0.000000	 0.000000
		CHANNELS 3 Zrotation Xrotation Yrotation
		JOINT LeftKnee
		{
			OFFSET	 0.000000	-18.469999	 0.000000
			CHANNELS 3 Zrotation Xrotation Yrotation
			JOINT LeftAnkle
			{
				OFFSET	 0.000000	-17.950001	 0.000000
				CHANNELS 3 Zrotation Xrotation Yrotation
				End Site 
				{
					OFFSET	 0.000000	-3.119996	 0.000000
				}
			}
		}
	}
	JOINT RightHip
	{
		OFFSET	-3.430000	 0.000000	 0.000000
		CHANNELS 3 Zrotation Xrotation Yrotation
		JOINT RightKnee
		{
			OFFSET	 0.000000	-18.809999	 0.000000
			CHANNELS 3 Zrotation Xrotation Yrotation
			JOINT RightAnkle
			{
				OFFSET	 0.000000	-17.570000	 0.000000
				CHANNELS 3 Zrotation Xrotation Yrotation
				End Site 
				{
					OFFSET	 0.000000	-3.250000	 0.000000
				}
			}
		}
	}
	JOINT Chest
	{
		OFFSET	 0.000000	 4.570000	 0.000000
		CHANNELS 3 Zrotation Xrotation Yrotation
		JOINT LeftCollar
		{
			OFFSET	 1.060000	 15.330000	 1.760000
			CHANNELS 3 Zrotation Xrotation Yrotation
			JOINT LeftShoulder
			{
				OFFSET	 5.810000	 0.000000	 0.000000
				CHANNELS 3 Zrotation Xrotation Yrotation
				JOINT LeftElbow
				{
					OFFSET	 0.000000	-12.080000	 0.000000
					CHANNELS 3 Zrotation Xrotation Yrotation
					JOINT LeftWrist
					{
						OFFSET	 0.000000	-9.820000	 0.000000
						CHANNELS 3 Zrotation Xrotation Yrotation
						End Site 
						{
							OFFSET	 0.000000	-7.369996	 0.000000
						}
					}
				}
			}
		}
		JOINT RightCollar
		{
			OFFSET	-1.060000	 15.330000	 1.760000
			CHANNELS 3 Zrotation Xrotation Yrotation
			JOINT RightShoulder
			{
				OFFSET	-6.060000	 0.000000	 0.000000
				CHANNELS 3 Zrotation Xrotation Yrotation
				JOINT RightElbow
				{
					OFFSET	 0.000000	-11.900000	 0.000000
					CHANNELS 3 Zrotation Xrotation Yrotation
					JOINT RightWrist
					{
						OFFSET	 0.000000	-9.520000	 0.000000
						CHANNELS 3 Zrotation Xrotation Yrotation
						End Site 
						{
							OFFSET	 0.000000	-7.140012	 0.000000
						}
					}
				}
			}
		}
		JOINT Neck
		{
			OFFSET	 0.000000	 17.620001	 0.000000
			CHANNELS 3 Zrotation Xrotation Yrotation
			JOINT Head
			{
				OFFSET	 0.000000	 5.190000	 0.000000
				CHANNELS 3 Zrotation Xrotation Yrotation
				End Site 
				{
					OFFSET	 0.000000	 4.140008	 0.000000
				}
			}
		}
	}
}

MOTION
Frames: 9
Frame Time: 0.033333
-48.498 2.7222 -40.1421 -8.86026 6.28238 63.9168 18.2752 -31.6501 20.3233 -0.374619 29.9899 3.56108 -19.6082 5.32309 -5.51435 -21.7378 -7.43232 -30.2168 3.97394 24.2278 7.82223 10.8865 -11.9185 5.76581 7.91799 9.9779 -0.451834 0 0 0 8.27241 -0.461482 9.85982 -59.2073 -42.1028 -41.4496 47.2858 -47.4508 7.02917 0 0 0 -21.3467 -12.6811 -0.840401 41.0635 -52.1627 34.2036 -42.999 -42.9414 17.7083 0 0 0 -7.75175 -8.38686 19.9637 
-48.4152 2.7347 -40.2451 -10.5544 6.83862 66.2036 19.1115 -35.0479 20.4152 -0.807434 32.1729 3.68129 -21.4042 6.88135 -7.76427 -23.5006 -8.52232 -29.4243 3.5637 25.9839 8.29178 12.2557 -13.6082 8.00256 9.55555 11.8507 -2.07862 0 0 0 8.8182 -2.69835 8.75298 -59.8597 -42.3351 -41.8472 46.2765 -47.0779 6.60857 0 0 0 -25.425 -13.436 -5.08503 42.3266 -52.9378 35.0242 -42.8734 -44.595 19.0767 0 0 0 -8.93031 -12.6717 19.1624 
-48.4052 2.5338 -40.3028 -12.0593 7.08788 69.2409 20.3646 -38.8355 20.7868 -1.25696 34.3892 3.85178 -22.2027 7.12015 -9.09684 -24.7519 -9.20775 -28.091 3.29297 27.7374 8.52192 13.2812 -16.0656 9.32921 11.4619 13.8516 -4.05697 0 0 0 9.39505 -4.57604 7.88238 -60.3576 -42.5432 -42.222 44.9491 -46.8296 5.91157 0 0 0 -30.1602 -13.531 -10.0567 42.4751 -53.184 34.8764 -43.7402 -45.0013 19.0413 0 0 0 -10.1213 -17.2078 18.3803 
-48.38 2.2752 -40.3932 -13.3356 7.13698 72.561 22.6618 -43.1644 22.3161 -1.38303 36.3799 4.187 -22.4152 7.01627 -9.78519 -25.7295 -9.63256 -27.0948 2.59751 29.6391 9.00843 14.3402 -19.06 10.7314 13.5576 15.1524 -6.03132 0 0 0 9.76025 -5.23645 7.26558 -60.6589 -42.6536 -42.4391 43.6678 -46.6981 5.35069 0 0 0 -35.1078 -12.9665 -14.7938 40.5946 -52.6318 33.2772 -45.051 -43.8195 18.1326 0 0 0 -11.4566 -21.2815 17.8646 
-48.3323 1.8407 -40.5339 -13.8571 6.86601 75.8154 25.7621 -47.3366 24.6703 -1.30864 37.761 4.44377 -21.6739 6.12627 -9.64923 -26.6659 -9.38429 -25.9229 1.84334 31.5798 9.49091 15.3376 -22.7405 12.184 15.3368 16.677 -7.64225 0 0 0 10.3521 -5.24104 6.71179 -60.0777 -42.6714 -41.6859 42.5457 -46.6608 5.20928 0 0 0 -39.2391 -12.4106 -19.4815 36.6416 -50.9171 30.2029 -45.9891 -40.9909 16.929 0 0 0 -12.5861 -25.2068 17.0371 
-48.2595 1.2531 -40.6469 -13.7301 6.45255 79.0199 29.5478 -51.2177 27.8714 -0.878708 38.4605 4.44264 -20.9802 4.81523 -9.09146 -27.3261 -8.01703 -24.886 1.21579 32.5903 9.76704 15.986 -26.7238 13.7186 16.8612 18.1812 -8.92758 0 0 0 11.2321 -4.19534 6.40584 -60.2134 -42.3323 -41.7293 43.0662 -45.4441 5.56955 0 0 0 -42.4518 -11.7428 -23.2023 31.4163 -48.3346 26.0156 -46.7737 -37.2102 14.9867 0 0 0 -13.5994 -28.7658 15.972 
-48.041 0.6328 -40.8152 -13.1733 5.97501 82.0049 33.6523 -54.4774 31.4271 -0.419285 38.099 4.66328 -19.9506 3.11688 -8.84349 -27.7793 -5.81357 -24.0402 0.721599 32.968 9.62871 16.3482 -30.789 14.7603 18.177 19.2887 -9.64972 0 0 0 12.4031 -2.28735 5.87049 -59.0671 -41.7301 -40.9845 44.0866 -44.2935 5.9839 0 0 0 -44.7499 -10.5656 -25.8567 27.2737 -44.561 23.1319 -47.4373 -32.6461 11.977 0 0 0 -14.7516 -31.5687 14.5949 
-47.6442 0.0201 -41.0688 -12.4759 5.53884 84.3615 37.404 -56.4505 35.3056 0.200143 36.8514 5.33286 -17.8558 0.799881 -8.22821 -27.6337 -3.24532 -23.5555 0.425454 32.7668 9.26853 16.5761 -33.462 14.0374 18.5357 19.3404 -9.60578 0 0 0 13.5154 1.61457 5.94727 -56.207 -40.5043 -39.4399 45.2561 -44.0246 6.90087 0 0 0 -44.702 -8.78067 -25.5319 23.6283 -40.6629 20.7702 -46.1838 -27.4247 9.05611 0 0 0 -15.342 -32.505 13.4544 
-46.8532 -0.5298 -41.5208 -12.3538 5.07435 87.0678 39.3461 -57.3109 37.9174 0.46009 34.8429 5.82133 -15.872 -0.762414 -6.85301 -27.1672 -0.588094 -22.577 0.357857 32.8702 8.80057 14.8771 -33.1751 11.8249 18.5629 18.6597 -9.34719 0 0 0 15.3657 7.52719 5.49157 -53.5029 -39.2274 -38.308 46.2542 -43.5502 7.75191 0 0 0 -42.9756 -6.37611 -22.9227 21.2581 -38.0331 19.3001 -43.6128 -22.9018 7.40001 0 0 0 -15.9359 -32.9281 11.7532 
